<svg viewBox="0 0 200 140" xmlns="http://www.w3.org/2000/svg" role="img" aria-label="Padma">
  <g fill="none" stroke="#2b322a" stroke-width="3.5" stroke-linecap="round" stroke-linejoin="round" transform="translate(100 128)">
    <path d="M 0,0 C -16,-20 -22,-55 0,-95 C 22,-55 16,-20 0,0 Z" transform="rotate(-68)"/>
    <path d="M 0,0 C -16,-20 -22,-55 0,-95 C 22,-55 16,-20 0,0 Z" transform="rotate(-34)"/>
    <path d="M 0,0 C -14,-20 -18,-55 0,-105 C 18,-55 14,-20 0,0 Z"/>
    <path d="M 0,0 C -16,-20 -22,-55 0,-95 C 22,-55 16,-20 0,0 Z" transform="rotate(34)"/>
    <path d="M 0,0 C -16,-20 -22,-55 0,-95 C 22,-55 16,-20 0,0 Z" transform="rotate(68)"/>
    <path d="M 0,-14 C -7,-30 -9,-55 0,-78 C 9,-55 7,-30 0,-14 Z" stroke-width="2.5"/>
  </g>
</svg>
