<svg viewBox="0 0 200 140" xmlns="http://www.w3.org/2000/svg" role="img" aria-label="Padma">
  <g fill="none" stroke-width="3.5" stroke-linecap="round" stroke-linejoin="round" transform="translate(100 128)">
    <path d="M 0,0 C -16,-20 -22,-55 0,-95 C 22,-55 16,-20 0,0 Z" transform="rotate(-68)" stroke="#2b322a"/>
    <path d="M 0,0 C -16,-20 -22,-55 0,-95 C 22,-55 16,-20 0,0 Z" transform="rotate(-34)" stroke="#2b322a"/>
    <path d="M 0,0 C -14,-20 -18,-55 0,-105 C 18,-55 14,-20 0,0 Z" stroke="#b86a3a"/>
    <path d="M 0,0 C -16,-20 -22,-55 0,-95 C 22,-55 16,-20 0,0 Z" transform="rotate(34)" stroke="#2b322a"/>
    <path d="M 0,0 C -16,-20 -22,-55 0,-95 C 22,-55 16,-20 0,0 Z" transform="rotate(68)" stroke="#2b322a"/>
  </g>
</svg>
