<svg viewBox="0 0 200 140" xmlns="http://www.w3.org/2000/svg" role="img" aria-label="Padma" style="color:#c8a142">
  <defs>
    <radialGradient id="p17petals" cx="50%" cy="100%" r="80%">
      <stop offset="0"   stop-color="currentColor" stop-opacity="1"/>
      <stop offset="0.5" stop-color="currentColor" stop-opacity="0.6"/>
      <stop offset="1"   stop-color="currentColor" stop-opacity="0.12"/>
    </radialGradient>
    <linearGradient id="p17mid" x1="0" y1="1" x2="0" y2="0">
      <stop offset="0"    stop-color="currentColor" stop-opacity="1"/>
      <stop offset="0.5"  stop-color="currentColor" stop-opacity="0.08"/>
      <stop offset="1"    stop-color="currentColor" stop-opacity="0.95"/>
    </linearGradient>
    <radialGradient id="p17tip" cx="50%" cy="50%" r="50%">
      <stop offset="0"   stop-color="#ffffff"      stop-opacity="0.9"/>
      <stop offset="0.4" stop-color="currentColor" stop-opacity="0.7"/>
      <stop offset="1"   stop-color="currentColor" stop-opacity="0"/>
    </radialGradient>
  </defs>
  <g fill="none" stroke-width="3.5" stroke-linecap="round" stroke-linejoin="round" transform="translate(100 128)">
    <path d="M 0,0 C -16,-20 -22,-55 0,-95 C 22,-55 16,-20 0,0 Z" transform="rotate(-68)" stroke="url(#p17petals)"/>
    <path d="M 0,0 C -16,-20 -22,-55 0,-95 C 22,-55 16,-20 0,0 Z" transform="rotate(-34)" stroke="url(#p17petals)"/>
    <path d="M 0,0 C -14,-20 -18,-55 0,-105 C 18,-55 14,-20 0,0 Z" stroke="url(#p17mid)"/>
    <path d="M 0,0 C -16,-20 -22,-55 0,-95 C 22,-55 16,-20 0,0 Z" transform="rotate(34)" stroke="url(#p17petals)"/>
    <path d="M 0,0 C -16,-20 -22,-55 0,-95 C 22,-55 16,-20 0,0 Z" transform="rotate(68)" stroke="url(#p17petals)"/>
    <circle cx="0" cy="-103" r="9" fill="url(#p17tip)"/>
  </g>
</svg>
