<svg viewBox="0 0 200 140" xmlns="http://www.w3.org/2000/svg" role="img" aria-label="Padma">
  <rect width="200" height="140" fill="#2b322a"/>
  <g fill="none" stroke="#f5efe3" stroke-width="3.5" stroke-linecap="round" stroke-linejoin="round" transform="translate(100 128)">
    <path d="M 0,0 C -16,-20 -22,-55 0,-95 C 22,-55 16,-20 0,0 Z" transform="rotate(-68)"/>
    <path d="M 0,0 C -16,-20 -22,-55 0,-95 C 22,-55 16,-20 0,0 Z" transform="rotate(-34)"/>
    <path d="M 0,0 C -14,-20 -18,-55 0,-105 C 18,-55 14,-20 0,0 Z" stroke="#c8a142"/>
    <path d="M 0,0 C -16,-20 -22,-55 0,-95 C 22,-55 16,-20 0,0 Z" transform="rotate(34)"/>
    <path d="M 0,0 C -16,-20 -22,-55 0,-95 C 22,-55 16,-20 0,0 Z" transform="rotate(68)"/>
  </g>
</svg>
